<?xml version="1.0" encoding="UTF-8"?>
<svg width="185px" height="81px" viewBox="0 0 185 81" version="1.1" xmlns="http://www.w3.org/2000/svg" xmlns:xlink="http://www.w3.org/1999/xlink">
    <!-- Generator: sketchtool 57.1 (101010) - https://sketch.com -->
    <title>E733E003-178D-4221-AA30-EDDFBA145591</title>
    <desc>Created with sketchtool.</desc>
    <g id="🎉-Components" stroke="none" stroke-width="1" fill="none" fill-rule="evenodd">
        <g id="Brand" transform="translate(-617.000000, -619.000000)" fill="#1EB0BD">
            <path d="M768.95511,692.1167 C770.44911,692.1167 771.38311,692.8787 771.92011,693.7387 L770.65311,694.4357 C770.33011,693.9237 769.71811,693.4877 768.95511,693.4877 C767.65611,693.4877 766.70911,694.5007 766.70911,695.8727 C766.70911,697.2447 767.65611,698.2577 768.95511,698.2577 C769.58811,698.2577 770.19111,697.9737 770.48111,697.7017 L770.48111,696.8307 L768.58911,696.8307 L768.58911,695.4807 L772.00611,695.4807 L772.00611,698.2687 C771.27611,699.0957 770.25511,699.6397 768.95511,699.6397 C766.86111,699.6397 765.14211,698.1587 765.14211,695.8727 C765.14211,693.5747 766.86111,692.1167 768.95511,692.1167 Z M683.55861,692.1167 C685.13861,692.1167 686.05161,692.9877 686.55661,693.8907 L685.24461,694.5447 C684.94461,693.9567 684.30061,693.4877 683.55861,693.4877 C682.25961,693.4877 681.31261,694.5007 681.31261,695.8727 C681.31261,697.2447 682.25961,698.2577 683.55861,698.2577 C684.30061,698.2577 684.94461,697.7997 685.24461,697.2007 L686.55661,697.8437 C686.03961,698.7477 685.13861,699.6297 683.55861,699.6297 C681.40961,699.6297 679.74461,698.1047 679.74461,695.8727 C679.74461,693.6407 681.40961,692.1167 683.55861,692.1167 Z M712.88391,692.1273 C714.02291,692.1273 714.96791,692.4753 715.67691,693.1403 L714.82891,694.2723 C714.24891,693.7273 713.47391,693.4773 712.74491,693.4773 C712.08891,693.4773 711.72391,693.7713 711.72391,694.2073 C711.72391,695.3613 715.83791,694.5883 715.83791,697.2993 C715.83791,698.6273 714.90391,699.6293 712.96991,699.6293 C711.59491,699.6293 710.60591,699.1613 709.94091,698.4753 L710.76691,697.2993 C711.27191,697.8323 712.05691,698.2793 713.04491,698.2793 C713.88291,698.2793 714.29191,697.8873 714.29191,697.4733 C714.29191,696.1883 710.16691,697.0703 710.16691,694.3373 C710.16691,693.1293 711.19791,692.1273 712.88391,692.1273 Z M748.16231,692.2362 L748.16231,693.5972 L744.61731,693.5972 L744.61731,695.1322 L748.08631,695.1322 L748.08631,696.4932 L744.61731,696.4932 L744.61731,699.4982 L743.09131,699.4982 L743.09131,692.2362 L748.16231,692.2362 Z M740.19941,692.2362 L740.19941,693.5972 L736.65441,693.5972 L736.65441,695.1322 L740.12441,695.1322 L740.12441,696.4932 L736.65441,696.4932 L736.65441,699.4982 L735.12841,699.4982 L735.12841,692.2362 L740.19941,692.2362 Z M729.87301,692.2362 L732.63401,699.4982 L730.89401,699.4982 L730.45401,698.2682 L727.38001,698.2682 L726.93001,699.4982 L725.19001,699.4982 L727.96001,692.2362 L729.87301,692.2362 Z M699.92491,692.2362 L699.92491,698.1372 L702.95491,698.1372 L702.95491,699.4982 L698.39891,699.4982 L698.39891,692.2362 L699.92491,692.2362 Z M693.14361,692.2362 L695.90461,699.4982 L694.16461,699.4982 L693.72461,698.2682 L690.65161,698.2682 L690.20061,699.4982 L688.46061,699.4982 L691.23061,692.2362 L693.14361,692.2362 Z M662.75411,692.2362 L662.75411,693.5972 L659.20911,693.5972 L659.20911,695.1322 L662.67911,695.1322 L662.67911,696.4932 L659.20911,696.4932 L659.20911,698.1372 L662.75411,698.1372 L662.75411,699.4982 L657.68311,699.4982 L657.68311,692.2362 L662.75411,692.2362 Z M648.80691,692.2362 L650.54691,696.6242 L652.28791,692.2362 L654.43591,692.2362 L654.43591,699.4982 L652.89991,699.4982 L652.89991,694.4132 L650.87991,699.4982 L650.21391,699.4982 L648.19391,694.4132 L648.19391,699.4982 L646.66991,699.4982 L646.66991,692.2362 L648.80691,692.2362 Z M757.39411,692.2362 L760.71311,696.7982 L760.71311,692.2362 L762.23911,692.2362 L762.23911,699.4982 L760.76711,699.4982 L757.35111,694.7612 L757.35111,699.4982 L755.82511,699.4982 L755.82511,692.2362 L757.39411,692.2362 Z M723.83341,692.2362 L723.83341,693.5972 L721.74941,693.5972 L721.74941,699.4982 L720.21341,699.4982 L720.21341,693.5972 L718.11841,693.5972 L718.11841,692.2362 L723.83341,692.2362 Z M668.60091,692.2362 C670.84591,692.2362 672.40391,693.6842 672.40391,695.8722 C672.40391,698.0612 670.84591,699.4982 668.60091,699.4982 L665.77491,699.4982 L665.77491,692.2362 L668.60091,692.2362 Z M752.57871,692.236 L752.57871,699.498 L751.05371,699.498 L751.05371,692.236 L752.57871,692.236 Z M676.84171,692.236 L676.84171,699.498 L675.31771,699.498 L675.31771,692.236 L676.84171,692.236 Z M668.60091,693.5972 L667.30091,693.5972 L667.30091,698.1372 L668.60091,698.1372 C670.01791,698.1372 670.84591,697.1032 670.84591,695.8722 C670.84591,694.5872 670.07191,693.5972 668.60091,693.5972 Z M692.18661,693.7822 L691.07061,696.9072 L693.30561,696.9072 L692.18661,693.7822 Z M728.91601,693.7822 L727.79901,696.9072 L730.03501,696.9072 L728.91601,693.7822 Z M705.49101,640.0152 C707.79201,641.3012 710.46301,645.6302 707.54401,649.9322 C704.89601,653.8362 700.36001,650.6192 700.56801,650.3132 C701.83501,648.4592 703.66101,642.6082 702.17701,642.1602 C701.46701,641.9462 700.10601,642.0422 698.59801,644.4982 C697.93801,646.3002 697.61801,649.4212 698.80601,655.0552 C699.02401,656.0932 699.21901,657.1432 699.38901,658.1872 C704.99601,654.6202 710.15001,652.1192 713.94801,650.5632 C718.09401,641.8182 718.03501,642.1142 721.17001,643.4882 C725.01401,645.1742 725.85201,645.0482 722.71801,650.7512 C719.58401,656.4542 712.18801,673.2442 716.16801,673.4602 C718.06101,673.5632 722.93501,668.2092 727.52801,662.5642 C728.86201,655.8752 732.22301,649.4192 734.80601,648.6432 C735.35601,645.7652 736.80101,643.1802 738.87601,641.7622 C741.20501,640.1692 744.82701,639.6412 746.91801,640.2562 C752.09601,641.7802 753.28901,649.0082 751.82601,656.7572 C756.05701,655.2672 760.10901,652.1052 762.22001,650.2812 C766.13701,640.1352 766.10601,640.4662 769.31401,641.6592 C773.03301,643.0432 774.79101,642.6292 772.13101,648.1852 C771.85401,648.7642 771.30201,649.7662 770.81701,650.7552 C774.82601,645.8662 779.53201,641.9982 784.39701,641.9832 C789.87001,641.9662 795.71801,644.9072 788.94901,659.1052 C782.17901,673.3032 782.20201,674.5932 783.28001,675.3962 C786.03601,677.4462 794.62501,666.3852 795.35801,657.6942 C795.38001,657.4372 795.60401,657.2532 795.85501,657.2892 C797.47601,657.5232 802.71301,658.7202 801.49201,664.3682 C800.05301,671.0292 788.16601,681.7912 780.61601,679.3492 C769.42001,675.7262 776.54801,661.2392 781.62701,651.2382 C783.37801,647.7892 784.22601,646.2992 782.34201,646.3042 C779.29701,646.3142 768.85901,657.0582 763.61301,671.4122 C763.17701,672.8342 762.82601,673.9432 762.49501,674.7922 L762.487385,674.8177 L762.487385,674.8177 L762.47901,674.8432 C761.59601,677.0772 760.86101,677.4592 759.08001,676.9492 C753.55301,675.3672 751.67201,677.9532 759.12701,658.3362 C756.77601,659.9312 753.77001,661.5112 750.37901,662.2202 C747.29601,671.2402 741.00001,679.3152 733.60301,678.1522 C729.07001,677.4382 727.22901,673.7362 726.97601,669.1782 C723.10101,673.1552 718.42501,676.8832 714.65101,676.6782 C708.00101,676.3172 705.44101,669.9272 711.57401,655.6932 C708.76301,657.0692 704.31201,659.5962 699.93801,662.4722 C700.25401,665.9462 700.20001,669.0962 699.62001,671.2412 C698.02001,677.1582 691.12601,682.4952 685.60901,680.0522 C682.34501,678.6062 680.52101,673.1992 690.43201,664.6832 C690.04101,663.1632 689.63701,661.5562 689.33801,659.8972 C684.94001,665.6612 676.67901,675.3492 671.32601,674.6002 C666.72401,673.9552 663.64501,669.9642 664.38301,663.5472 C660.39201,669.7882 655.24501,676.2282 651.26301,675.6702 C644.53501,674.7282 641.05801,666.6392 648.00801,654.2692 C654.75601,642.2572 654.56501,642.7882 657.66701,644.7292 C661.17401,646.9252 661.99001,647.1982 658.39201,653.4742 C654.79401,659.7502 649.48501,670.8332 653.27701,671.3642 C655.96501,671.7402 664.69701,658.3792 669.55401,650.5682 C674.80501,641.2892 674.87601,641.8722 677.72901,643.6592 C681.23701,645.8542 682.05301,646.1282 678.45501,652.4042 C674.85701,658.6802 669.54801,669.7632 673.34001,670.2942 C675.71301,670.6262 683.42901,661.9822 688.87301,655.4682 C688.841626,653.6562 689.039448,651.81949 689.597041,649.995037 L689.74401,649.5392 L689.71701,649.5532 L689.725725,649.525328 C689.856724,649.1119 691.471245,644.204455 695.00901,641.8702 C698.15101,639.7972 702.22701,638.1902 705.49101,640.0152 Z M684.71251,619 L684.728274,619.008604 C685.0493,619.186377 690.124823,622.117875 686.22851,627.694 C680.36551,636.082 662.74351,631.395 647.44651,629.781 C645.84651,633.839 643.02251,639.032 639.94351,644.32 C642.04851,644.165 644.27451,643.811 646.70151,643.112 C646.83851,643.072 646.92151,643.188 646.96751,643.325 C647.82051,645.89 646.59251,649.336 645.70951,650.384 C643.58451,652.904 639.63651,652.768 635.31651,652.091 C632.46351,656.819 629.80051,661.191 628.09051,664.39 C623.26851,673.405 624.48951,678.03 625.13751,679.475 C625.25951,679.747 625.10451,680.063 624.81551,680.124 C620.24051,681.082 615.16051,679.255 617.66051,668.648 C618.96551,663.112 622.27551,656.806 625.97451,650.579 C623.55551,650.364 621.36851,650.486 619.71251,651.381 C619.50151,651.496 619.31151,651.368 619.23351,651.144 C618.77251,649.822 617.30851,644.768 622.54051,644.192 C625.13051,643.907 627.54551,643.969 629.93751,644.1 C633.31951,638.664 636.55751,633.533 638.49451,629.315 C632.12551,629.46 626.86951,630.967 624.12751,635.443 C624.12751,635.443 619.73751,633.354 619.92451,629.433 C620.16051,624.508 624.77951,621.843 629.41651,620.925 C641.43251,618.547 671.24251,627.854 684.71251,619 Z M691.42301,668.7752 C688.79401,671.0602 686.92901,673.2162 686.61801,674.8722 C686.22001,676.9902 687.16701,677.7712 687.71201,677.8972 C689.27101,678.2582 691.09501,675.6282 691.63801,673.0052 C691.88601,671.8112 691.74401,670.3792 691.42301,668.7752 Z M737.53901,659.1822 C735.63601,663.8952 732.56801,672.9452 736.81101,673.4972 C739.72901,673.8762 743.08301,668.6402 745.48101,662.5572 C744.73001,662.5012 743.97101,662.3962 743.20201,662.2272 C740.76501,661.6932 738.90201,660.6022 737.53901,659.1822 Z M746.42801,645.0432 C742.74801,645.7132 741.06601,656.0082 745.13901,657.2422 C745.79901,657.4422 746.48301,657.5412 747.17901,657.5672 C749.14101,650.7642 749.50501,644.4842 746.42801,645.0432 Z M722.968041,630.538046 L723.07431,630.5407 C727.78331,630.7967 729.49731,635.7187 727.34031,637.5597 C725.18231,639.4007 722.69431,640.1787 720.29831,636.7857 C717.989438,633.516082 720.920627,630.65226 722.859401,630.541367 L722.968041,630.538046 Z" id="f_logo_tag_1c_teal"></path>
        </g>
    </g>
</svg>